<?xml version="1.0" encoding="utf-8"?>
<!-- Generator: Adobe Illustrator 21.0.0, SVG Export Plug-In . SVG Version: 6.00 Build 0)  -->
<svg version="1.1" id="Layer_1" xmlns="http://www.w3.org/2000/svg" xmlns:xlink="http://www.w3.org/1999/xlink" x="0px" y="0px"
	 viewBox="0 0 102 6" style="enable-background:new 0 0 102 6;" xml:space="preserve">
<style type="text/css">
	.st0{fill-rule:evenodd;clip-rule:evenodd;fill:#BBBBBB;}
</style>
<path class="st0" d="M3,0c1.7,0,3,1.3,3,3c0,1.7-1.3,3-3,3C1.3,6,0,4.7,0,3C0,1.3,1.3,0,3,0z"/>
<path class="st0" d="M27,0c1.7,0,3,1.3,3,3c0,1.7-1.3,3-3,3c-1.7,0-3-1.3-3-3C24,1.3,25.3,0,27,0z"/>
<path class="st0" d="M51,0c1.7,0,3,1.3,3,3c0,1.7-1.3,3-3,3c-1.7,0-3-1.3-3-3C48,1.3,49.3,0,51,0z"/>
<path class="st0" d="M75,0c1.7,0,3,1.3,3,3c0,1.7-1.3,3-3,3c-1.7,0-3-1.3-3-3C72,1.3,73.3,0,75,0z"/>
<path class="st0" d="M99,0c1.7,0,3,1.3,3,3c0,1.7-1.3,3-3,3c-1.7,0-3-1.3-3-3C96,1.3,97.3,0,99,0z"/>
</svg>
