<?xml version="1.0" encoding="utf-8"?>
<!-- Generator: Adobe Illustrator 21.0.0, SVG Export Plug-In . SVG Version: 6.00 Build 0)  -->
<svg version="1.1" id="Layer_1" xmlns="http://www.w3.org/2000/svg" xmlns:xlink="http://www.w3.org/1999/xlink" x="0px" y="0px"
	 viewBox="0 0 35 27" style="enable-background:new 0 0 35 27;" xml:space="preserve">
<style type="text/css">
	.st0{fill:#FFFFFF;}
</style>
<g>
	<path class="st0" d="M31.2,0.5c0.9,0,1.6,0.3,2.3,0.9s0.9,1.4,0.9,2.3v19.1c0,0.9-0.3,1.6-0.9,2.3c-0.6,0.6-1.4,0.9-2.3,0.9H3.6
		c-0.9,0-1.6-0.3-2.3-0.9c-0.6-0.6-0.9-1.4-0.9-2.3V3.6c0-0.9,0.3-1.6,0.9-2.3s1.4-0.9,2.3-0.9H31.2z M31.2,3.6H3.6v2.7
		c1.5,1.2,4.5,3.6,9,7l0.6,0.5c0.9,0.8,1.6,1.3,2.1,1.6c0.8,0.6,1.5,0.9,2.1,0.9s1.3-0.3,2.1-0.9c0.5-0.3,1.2-0.8,2.1-1.6l0.6-0.5
		c4.4-3.4,7.4-5.8,9-7V3.6z M3.6,22.8h27.6V10.4l-7.7,6.1c-1.1,0.9-2,1.6-2.7,2c-1.2,0.7-2.3,1.1-3.4,1.1c-1.1,0-2.2-0.4-3.5-1.1
		c-0.7-0.4-1.6-1.1-2.7-2l-7.6-6.1V22.8z"/>
</g>
</svg>
