<?xml version="1.0" encoding="utf-8"?>
<!-- Generator: Adobe Illustrator 21.0.0, SVG Export Plug-In . SVG Version: 6.00 Build 0)  -->
<svg version="1.1" id="Layer_1" xmlns="http://www.w3.org/2000/svg" xmlns:xlink="http://www.w3.org/1999/xlink" x="0px" y="0px"
	 viewBox="0 0 44 27" style="enable-background:new 0 0 44 27;" xml:space="preserve">
<style type="text/css">
	.st0{fill:#FFFFFF;}
</style>
<g>
	<path class="st0" d="M41.3,0.7c0.6,0,1.1,0.2,1.5,0.6s0.6,0.9,0.6,1.5V24c0,0.6-0.2,1.1-0.6,1.5c-0.4,0.4-0.9,0.6-1.5,0.6H3
		c-0.6,0-1.1-0.2-1.5-0.6c-0.4-0.4-0.6-0.9-0.6-1.5V2.8c0-0.6,0.2-1.1,0.6-1.5S2.4,0.7,3,0.7H41.3z M40.2,18.7V8.1
		c-1.2,0-2.2-0.4-3-1.2S36,5,36,3.9H8.3c0,1.2-0.4,2.2-1.2,3s-1.8,1.2-3,1.2v10.6c1.2,0,2.2,0.4,3,1.2c0.8,0.8,1.2,1.8,1.2,3H36
		c0-1.2,0.4-2.2,1.2-3C38,19.1,39,18.7,40.2,18.7z M22.1,6c1.2,0,2.2,0.3,3.2,1c1,0.7,1.7,1.6,2.3,2.7s0.9,2.4,0.9,3.7
		s-0.3,2.6-0.9,3.7s-1.4,2.1-2.3,2.7c-1,0.7-2,1-3.2,1c-1.2,0-2.2-0.3-3.2-1c-1-0.7-1.7-1.6-2.3-2.7s-0.9-2.4-0.9-3.7
		s0.3-2.6,0.9-3.7S18,7.6,19,7C19.9,6.3,21,6,22.1,6z M24.8,17.1v-1.1c0-0.1-0.1-0.3-0.2-0.4c-0.1-0.1-0.2-0.2-0.4-0.2h-1.1V9.7
		c0-0.1-0.1-0.3-0.2-0.4c-0.1-0.1-0.2-0.2-0.4-0.2h-0.9c-0.3,0-0.6,0.1-0.9,0.3l-1,0.7c-0.1,0.1-0.2,0.2-0.2,0.4
		c0,0.2,0,0.3,0.1,0.4l0.5,0.9c0.1,0.1,0.2,0.2,0.4,0.2c0.2,0,0.3,0,0.4-0.1v3.7H20c-0.1,0-0.3,0.1-0.4,0.2
		c-0.1,0.1-0.2,0.2-0.2,0.4v1.1c0,0.1,0.1,0.3,0.2,0.4c0.1,0.1,0.2,0.2,0.4,0.2h4.3c0.1,0,0.3-0.1,0.4-0.2
		C24.7,17.4,24.8,17.3,24.8,17.1z"/>
</g>
</svg>
