<?xml version="1.0" encoding="utf-8"?>
<!-- Generator: Adobe Illustrator 21.0.0, SVG Export Plug-In . SVG Version: 6.00 Build 0)  -->
<svg version="1.1" id="Layer_1" xmlns="http://www.w3.org/2000/svg" xmlns:xlink="http://www.w3.org/1999/xlink" x="0px" y="0px"
	 viewBox="0 0 35 35" style="enable-background:new 0 0 35 35;" xml:space="preserve">
<style type="text/css">
	.st0{fill:#FFFFFF;}
</style>
<g>
	<path class="st0" d="M30.8,0.6c0.6,0,1.1,0.3,1.4,0.9s0.3,1.1-0.1,1.7L7.8,34c-0.3,0.4-0.7,0.7-1.3,0.7H4.2c-0.6,0-1.1-0.3-1.4-0.9
		c-0.3-0.6-0.3-1.1,0.1-1.7L27.4,1.3c0.3-0.4,0.7-0.7,1.3-0.7H30.8z M13.8,14.5c1.2-0.7,2.1-1.6,2.7-2.7s1-2.4,1-3.7s-0.3-2.6-1-3.7
		s-1.6-2.1-2.7-2.7s-2.4-1-3.7-1S7.5,1,6.4,1.6S4.3,3.2,3.6,4.4s-1,2.4-1,3.7s0.3,2.6,1,3.7s1.6,2.1,2.7,2.7s2.4,1,3.7,1
		S12.6,15.2,13.8,14.5z M12.3,5.8c0.6,0.6,0.9,1.4,0.9,2.3s-0.3,1.6-0.9,2.3s-1.4,0.9-2.3,0.9s-1.6-0.3-2.3-0.9S6.9,9,6.9,8.1
		s0.3-1.6,0.9-2.3s1.4-0.9,2.3-0.9S11.7,5.2,12.3,5.8z M21.2,20.8c-1.2,0.7-2.1,1.6-2.7,2.7c-0.7,1.2-1,2.4-1,3.7s0.3,2.6,1,3.7
		c0.7,1.2,1.6,2.1,2.7,2.7c1.2,0.7,2.4,1,3.7,1s2.6-0.3,3.7-1s2.1-1.6,2.7-2.7c0.7-1.2,1-2.4,1-3.7s-0.3-2.6-1-3.7
		c-0.7-1.2-1.6-2.1-2.7-2.7s-2.4-1-3.7-1S22.4,20.1,21.2,20.8z M22.7,29.5c-0.6-0.6-0.9-1.4-0.9-2.3c0-0.9,0.3-1.6,0.9-2.3
		c0.6-0.6,1.4-0.9,2.3-0.9c0.9,0,1.6,0.3,2.3,0.9c0.6,0.6,0.9,1.4,0.9,2.3c0,0.9-0.3,1.6-0.9,2.3c-0.6,0.6-1.4,0.9-2.3,0.9
		C24.1,30.4,23.3,30.1,22.7,29.5z"/>
</g>
</svg>
