<?xml version="1.0" encoding="utf-8"?>
<!-- Generator: Adobe Illustrator 21.0.0, SVG Export Plug-In . SVG Version: 6.00 Build 0)  -->
<svg version="1.1" id="Layer_1" xmlns="http://www.w3.org/2000/svg" xmlns:xlink="http://www.w3.org/1999/xlink" x="0px" y="0px"
	 viewBox="0 0 15.3 20" style="enable-background:new 0 0 15.3 20;" xml:space="preserve">
<style type="text/css">
	.st0{fill:#272733;}
</style>
<g>
	<g>
		<path class="st0" d="M15,4.1c0-0.1,0-0.2-0.1-0.3l-3.5-3.5c0,0,0,0,0,0c-0.1-0.1-0.2-0.1-0.3-0.1H1.3c-0.5,0-1,0.4-1,1v17.7
			c0,0.5,0.4,1,1,1h12.8c0.5,0,1-0.4,1-1L15,4.1C15,4.1,15,4.1,15,4.1z M11.5,1.7l2,2h-1.9c0,0,0,0,0,0L11.5,1.7L11.5,1.7z
			 M14.1,18.9C14.1,18.9,14.1,18.9,14.1,18.9l-12.9,0c0,0,0,0,0,0V1.1c0,0,0,0,0,0h9.3v2.6c0,0.5,0.4,1,1,1h2.6L14.1,18.9L14.1,18.9
			z"/>
	</g>
</g>
<g>
	<g>
		<path class="st0" d="M11.7,6.5H3.6c-0.3,0-0.5,0.2-0.5,0.5c0,0.3,0.2,0.5,0.5,0.5h8.2c0.3,0,0.5-0.2,0.5-0.5
			C12.2,6.7,12,6.5,11.7,6.5z"/>
	</g>
</g>
<g>
	<g>
		<path class="st0" d="M11.7,9.2H3.6c-0.3,0-0.5,0.2-0.5,0.5s0.2,0.5,0.5,0.5h8.2c0.3,0,0.5-0.2,0.5-0.5C12.2,9.5,12,9.2,11.7,9.2z"
			/>
	</g>
</g>
<g>
	<g>
		<path class="st0" d="M11.7,12H3.6c-0.3,0-0.5,0.2-0.5,0.5c0,0.3,0.2,0.5,0.5,0.5h8.2c0.3,0,0.5-0.2,0.5-0.5
			C12.2,12.2,12,12,11.7,12z"/>
	</g>
</g>
<g>
	<g>
		<path class="st0" d="M7.7,14.8H3.6c-0.3,0-0.5,0.2-0.5,0.5c0,0.3,0.2,0.5,0.5,0.5h4.1c0.3,0,0.5-0.2,0.5-0.5S7.9,14.8,7.7,14.8z"
			/>
	</g>
</g>
</svg>
