<?xml version="1.0" encoding="utf-8"?>
<!-- Generator: Adobe Illustrator 21.0.0, SVG Export Plug-In . SVG Version: 6.00 Build 0)  -->
<svg version="1.1" id="Layer_1" xmlns="http://www.w3.org/2000/svg" xmlns:xlink="http://www.w3.org/1999/xlink" x="0px" y="0px"
	 viewBox="0 0 246 20.3" style="enable-background:new 0 0 246 20.3;" xml:space="preserve">
<style type="text/css">
	.st0{fill:#FFFFFF;}
	.st1{fill:#42A9ED;}
</style>
<g>
	<path class="st0" d="M0.4,20.3V0.4h5.5v15.1h9v4.8H0.4z"/>
	<path class="st0" d="M25.5,20.4c-1.5,0-2.9-0.3-4.1-0.9c-1.2-0.6-2.3-1.3-3.2-2.3c-0.9-0.9-1.6-2-2-3.2c-0.5-1.2-0.7-2.5-0.7-3.8
		c0-1.3,0.3-2.6,0.8-3.8c0.5-1.2,1.2-2.3,2.1-3.2s2-1.7,3.2-2.2c1.2-0.6,2.6-0.8,4.1-0.8c1.5,0,2.9,0.3,4.1,0.9
		C31,1.7,32,2.5,32.9,3.4c0.9,1,1.6,2,2,3.2c0.5,1.2,0.7,2.5,0.7,3.7c0,1.3-0.3,2.6-0.8,3.8s-1.2,2.3-2.1,3.2
		c-0.9,0.9-2,1.7-3.2,2.2C28.3,20.1,27,20.4,25.5,20.4z M21,10.3c0,0.7,0.1,1.3,0.3,1.9s0.5,1.2,0.8,1.7s0.8,0.9,1.4,1.2
		s1.2,0.4,2,0.4c0.8,0,1.5-0.2,2-0.5c0.6-0.3,1-0.7,1.4-1.2c0.4-0.5,0.6-1.1,0.8-1.7c0.2-0.6,0.3-1.3,0.3-1.9c0-0.7-0.1-1.3-0.3-1.9
		c-0.2-0.6-0.5-1.2-0.9-1.7c-0.4-0.5-0.9-0.9-1.4-1.1c-0.6-0.3-1.2-0.4-2-0.4c-0.8,0-1.5,0.2-2,0.4c-0.6,0.3-1,0.7-1.4,1.2
		c-0.4,0.5-0.6,1.1-0.8,1.7C21.1,9,21,9.7,21,10.3z"/>
	<path class="st0" d="M38,20.3V0.4h9.1c1,0,1.9,0.2,2.7,0.6c0.8,0.4,1.5,0.9,2.1,1.6c0.6,0.6,1,1.4,1.4,2.2c0.3,0.8,0.5,1.7,0.5,2.5
		c0,1.2-0.3,2.2-0.8,3.2s-1.2,1.8-2.1,2.5l4.2,7.3H49l-3.5-6.1h-2v6.1H38z M43.4,9.4h3.4c0.3,0,0.6-0.2,0.9-0.6s0.4-0.9,0.4-1.6
		c0-0.7-0.2-1.2-0.5-1.6s-0.7-0.5-1-0.5h-3.3V9.4z"/>
	<path class="st0" d="M71,15.5v4.8H56.9V0.4h13.9v4.8h-8.5v2.8h7.2v4.4h-7.2v3.1H71z"/>
	<path class="st0" d="M88.6,20.3V9.8l-3.3,7.4h-2.9L79,9.8v10.5h-5.5V0.4h6l4.3,9.4l4.3-9.4h5.9v19.9H88.6z"/>
	<path class="st0" d="M97.5,20.3V0.4h5.5v19.9H97.5z"/>
	<path class="st0" d="M106.4,20.3V0.4h8.6c1,0,1.9,0.2,2.7,0.6s1.5,0.9,2.1,1.6c0.6,0.6,1,1.4,1.4,2.2c0.3,0.8,0.5,1.7,0.5,2.5
		c0,0.9-0.2,1.7-0.5,2.6c-0.3,0.8-0.8,1.6-1.3,2.2c-0.6,0.6-1.3,1.2-2.1,1.5s-1.7,0.6-2.7,0.6h-3.2v6.1H106.4z M111.8,9.4h2.9
		c0.3,0,0.6-0.2,0.9-0.5c0.3-0.3,0.4-0.9,0.4-1.7c0-0.8-0.2-1.4-0.5-1.7s-0.7-0.4-1-0.4h-2.7V9.4z"/>
	<path class="st0" d="M135.8,6.9c-0.6-0.3-1.1-0.6-1.7-0.9c-0.5-0.2-1.1-0.4-1.7-0.6S131.2,5,130.6,5c-0.5,0-0.9,0.1-1.2,0.2
		C129.1,5.4,129,5.7,129,6c0,0.3,0.1,0.5,0.3,0.6s0.4,0.3,0.7,0.5c0.3,0.1,0.7,0.3,1.2,0.4s1,0.3,1.6,0.5c0.9,0.3,1.7,0.6,2.5,0.9
		c0.7,0.3,1.4,0.7,1.9,1.2c0.5,0.5,0.9,1,1.2,1.7s0.4,1.4,0.4,2.4c0,1.2-0.2,2.2-0.7,3c-0.4,0.8-1,1.5-1.7,1.9s-1.5,0.8-2.4,1
		c-0.9,0.2-1.8,0.3-2.7,0.3c-0.7,0-1.5-0.1-2.2-0.2s-1.5-0.3-2.3-0.5c-0.8-0.2-1.5-0.4-2.2-0.7s-1.3-0.6-1.9-1l2.4-4.8
		c0.7,0.4,1.3,0.8,2,1.1c0.6,0.3,1.3,0.5,2,0.8c0.8,0.2,1.5,0.3,2.3,0.3c0.6,0,1-0.1,1.2-0.2c0.2-0.2,0.3-0.4,0.3-0.6
		c0-0.3-0.1-0.5-0.3-0.7c-0.2-0.2-0.6-0.4-1-0.5c-0.4-0.1-0.9-0.3-1.4-0.4c-0.5-0.1-1.1-0.3-1.7-0.5c-0.9-0.3-1.6-0.6-2.3-1
		c-0.6-0.3-1.2-0.7-1.6-1.2c-0.4-0.4-0.7-0.9-0.9-1.5c-0.2-0.6-0.3-1.2-0.3-1.9c0-1.1,0.2-2.1,0.6-2.9s0.9-1.5,1.6-2.1
		c0.7-0.6,1.5-1,2.4-1.3s1.8-0.4,2.8-0.4c0.7,0,1.4,0.1,2.1,0.2c0.7,0.1,1.4,0.3,2,0.5c0.6,0.2,1.2,0.4,1.8,0.7
		c0.6,0.3,1.1,0.5,1.5,0.7L135.8,6.9z"/>
	<path class="st0" d="M149.8,15.6c0.6,0,1.2-0.1,1.6-0.4c0.4-0.3,0.8-0.6,1.1-1.1c0.3-0.5,0.5-1,0.6-1.6c0.1-0.6,0.2-1.2,0.2-1.9
		V0.4h5.5v10.2c0,1.4-0.2,2.7-0.5,3.9s-0.9,2.2-1.7,3.1c-0.7,0.9-1.7,1.6-2.8,2.1s-2.5,0.8-4,0.8c-1.6,0-2.9-0.3-4.1-0.8
		c-1.1-0.5-2.1-1.2-2.8-2.1c-0.7-0.9-1.3-1.9-1.6-3.1s-0.5-2.4-0.5-3.8V0.4h5.5v10.2c0,0.7,0.1,1.3,0.2,1.9s0.3,1.1,0.6,1.6
		s0.6,0.8,1.1,1.1C148.6,15.4,149.1,15.6,149.8,15.6z"/>
	<path class="st0" d="M176.9,20.3V9.8l-3.3,7.4h-2.9l-3.3-7.4v10.5h-5.5V0.4h6l4.3,9.4l4.3-9.4h5.9v19.9H176.9z"/>
	<path class="st0" d="M185.5,20.3v-5.2h4.3v5.2H185.5z"/>
	<path class="st1" d="M198.4,10.5v9.8h-5.5V0.4h4.3l8,10.1V0.4h5.5v19.9h-4.3L198.4,10.5z"/>
	<path class="st1" d="M228.2,15.5v4.8H214V0.4h13.9v4.8h-8.5v2.8h7.2v4.4h-7.2v3.1H228.2z"/>
	<path class="st1" d="M246.2,5.1h-5.7v15.1h-5.5V5.1h-5.7V0.4h16.9V5.1z"/>
</g>
</svg>
