<?xml version="1.0" encoding="utf-8"?>
<!-- Generator: Adobe Illustrator 21.0.0, SVG Export Plug-In . SVG Version: 6.00 Build 0)  -->
<svg version="1.1" id="Layer_1" xmlns="http://www.w3.org/2000/svg" xmlns:xlink="http://www.w3.org/1999/xlink" x="0px" y="0px"
	 viewBox="0 0 35 35" style="enable-background:new 0 0 35 35;" xml:space="preserve">
<style type="text/css">
	.st0{fill:#FFFFFF;}
</style>
<g>
	<path class="st0" d="M34.1,30.1c0.3,0.3,0.5,0.7,0.5,1.1c0,0.4-0.2,0.8-0.5,1.1l-1.9,1.9c-0.3,0.3-0.7,0.5-1.1,0.5
		s-0.8-0.2-1.1-0.5l-6.6-6.6c-0.3-0.3-0.5-0.7-0.5-1.1v-1.1c-2.5,1.9-5.3,2.9-8.5,2.9c-2.5,0-4.8-0.6-6.9-1.9c-2.1-1.2-3.8-2.9-5-5
		c-1.2-2.1-1.9-4.4-1.9-6.9s0.6-4.8,1.9-6.9s2.9-3.8,5-5s4.4-1.9,6.9-1.9s4.8,0.6,6.9,1.9c2.1,1.2,3.8,2.9,5,5
		c1.2,2.1,1.9,4.4,1.9,6.9c0,3.2-1,6-2.9,8.5h1.1c0.4,0,0.8,0.2,1.1,0.5L34.1,30.1z M14.4,22.9c1.5,0,3-0.4,4.3-1.1
		c1.3-0.8,2.3-1.8,3.1-3.1c0.8-1.3,1.1-2.7,1.1-4.3s-0.4-3-1.1-4.3C21,8.9,20,7.8,18.7,7.1c-1.3-0.8-2.7-1.1-4.3-1.1s-3,0.4-4.3,1.1
		S7.8,8.9,7,10.2s-1.1,2.7-1.1,4.3s0.4,3,1.1,4.3c0.8,1.3,1.8,2.3,3.1,3.1C11.4,22.6,12.9,22.9,14.4,22.9z"/>
</g>
</svg>
